<?xml version="1.0" encoding="UTF-8" standalone="no"?>
<!DOCTYPE svg PUBLIC "-//W3C//DTD SVG 1.1//EN" "http://www.w3.org/Graphics/SVG/1.1/DTD/svg11.dtd">
<svg width="100%" height="100%" viewBox="0 0 867 690" version="1.1" xmlns="http://www.w3.org/2000/svg" xmlns:xlink="http://www.w3.org/1999/xlink" xml:space="preserve" xmlns:serif="http://www.serif.com/" style="fill-rule:evenodd;clip-rule:evenodd;stroke-linecap:round;stroke-miterlimit:10;">
    <g transform="matrix(1,0,0,1,-97,-169)">
        <g id="Layer1" transform="matrix(3.16085,0,0,3.16085,-2036.33,-1815.55)">
            <g transform="matrix(1,0,0,1,-93.5567,393.962)">
                <g transform="matrix(0.316371,-0,-0,0.316371,768.482,233.892)">
                    <path d="M436.899,28.165L423.399,19.165L409.899,28.165" style="fill:none;stroke:black;stroke-width:6px;"/>
                    <path d="M436.899,655.97L423.399,664.97L409.899,655.97" style="fill:none;stroke:black;stroke-width:6px;"/>
                    <path d="M423.399,19.165L423.399,664.97" style="fill:none;stroke:black;stroke-width:6px;stroke-linejoin:round;stroke-miterlimit:1.5;"/>
                </g>
            </g>
            <g transform="matrix(6.12323e-17,-1,1,6.12323e-17,466.764,1638.51)">
                <g transform="matrix(1.93721e-17,0.316371,-0.316371,1.93721e-17,1010.65,208.161)">
                    <path d="M109.496,328.568L100.496,342.068L109.496,355.568" style="fill:none;stroke:black;stroke-width:6px;"/>
                    <path d="M737.301,328.568L746.301,342.068L737.301,355.568" style="fill:none;stroke:black;stroke-width:6px;"/>
                    <path d="M100.496,342.068L746.301,342.068" style="fill:none;stroke:black;stroke-width:6px;stroke-linejoin:round;stroke-miterlimit:1.5;"/>
                </g>
            </g>
            <g transform="matrix(0.821375,0,0,0.821375,147.809,130.416)">
                <g transform="matrix(24,0,0,24,946.29,629.571)">
                </g>
                <text x="824.778px" y="629.571px" style="font-family:'Satoshi-Regular', 'Satoshi';font-size:24px;">Pr<tspan x="847.338px " y="629.571px ">e</tspan>scrip<tspan x="910.194px " y="629.571px ">t</tspan>iv<tspan x="933.618px " y="629.571px ">e</tspan></text>
            </g>
            <g transform="matrix(0.821375,0,0,0.821375,176.453,250.718)">
                <g transform="matrix(24,0,0,24,934.29,629.571)">
                </g>
                <text x="824.778px" y="629.571px" style="font-family:'Satoshi-Regular', 'Satoshi';font-size:24px;">Imma<tspan x="883.41px 890.442px " y="629.571px 629.571px ">te</tspan>rial</text>
            </g>
            <g transform="matrix(0.821375,0,0,0.821375,13.469,318.929)">
                <g transform="matrix(24,0,0,24,940.674,629.571)">
                </g>
                <text x="824.778px" y="629.571px" style="font-family:'Satoshi-Regular', 'Satoshi';font-size:24px;">Descrip<tspan x="904.578px " y="629.571px ">t</tspan>iv<tspan x="928.002px " y="629.571px ">e</tspan></text>
            </g>
            <g transform="matrix(0.821375,0,0,0.821375,1.80476,202.224)">
                <g transform="matrix(24,0,0,24,908.106,629.571)">
                </g>
                <text x="824.778px" y="629.571px" style="font-family:'Satoshi-Regular', 'Satoshi';font-size:24px;">Ma<tspan x="857.226px 864.258px " y="629.571px 629.571px ">te</tspan>rial</text>
            </g>
            <g transform="matrix(0.316371,0,0,0.316371,644.237,574.387)">
                <circle cx="615.298" cy="366.564" r="16.847" style="fill:rgb(216,205,157);"/>
            </g>
            <g transform="matrix(0.316371,0,0,0.316371,657.047,570.51)">
                <circle cx="615.298" cy="366.564" r="16.847" style="fill:rgb(216,205,157);"/>
            </g>
            <g transform="matrix(0.316371,0,0,0.316371,644.877,550.943)">
                <circle cx="615.298" cy="366.564" r="16.847" style="fill:rgb(216,205,157);"/>
            </g>
            <g transform="matrix(0.316371,0,0,0.316371,660.595,553.062)">
                <circle cx="615.298" cy="366.564" r="16.847" style="fill:rgb(216,205,157);"/>
            </g>
            <g transform="matrix(0.316371,0,0,0.316371,649.119,558.46)">
                <circle cx="615.298" cy="366.564" r="16.847" style="fill:rgb(216,205,157);"/>
            </g>
            <g transform="matrix(0.316371,0,0,0.316371,677.792,572.71)">
                <circle cx="615.298" cy="366.564" r="16.847" style="fill:rgb(216,205,157);"/>
            </g>
            <g transform="matrix(0.316371,0,0,0.316371,662.284,583.522)">
                <circle cx="615.298" cy="366.564" r="16.847" style="fill:rgb(216,205,157);"/>
            </g>
            <g transform="matrix(0.316371,0,0,0.316371,639.924,670.754)">
                <circle cx="615.298" cy="366.564" r="16.847" style="fill:rgb(122,64,62);"/>
            </g>
            <g transform="matrix(0.316371,0,0,0.316371,585.415,652.741)">
                <circle cx="615.298" cy="366.564" r="16.847" style="fill:rgb(122,64,62);"/>
            </g>
            <g transform="matrix(0.316371,0,0,0.316371,572.99,655.043)">
                <circle cx="615.298" cy="366.564" r="16.847" style="fill:rgb(122,64,62);"/>
            </g>
            <g transform="matrix(0.316371,0,0,0.316371,651.738,657.414)">
                <circle cx="615.298" cy="366.564" r="16.847" style="fill:rgb(122,64,62);"/>
            </g>
            <g transform="matrix(0.316371,0,0,0.316371,576.139,560.512)">
                <circle cx="615.298" cy="366.564" r="16.847" style="fill:rgb(122,64,62);"/>
            </g>
            <g transform="matrix(0.316371,0,0,0.316371,589.4,563.04)">
                <circle cx="615.298" cy="366.564" r="16.847" style="fill:rgb(122,64,62);"/>
            </g>
            <g transform="matrix(0.316371,0,0,0.316371,652.171,670.425)">
                <circle cx="615.298" cy="366.564" r="16.847" style="fill:rgb(122,64,62);"/>
            </g>
            <g transform="matrix(0.316371,0,0,0.316371,674.508,682.457)">
                <circle cx="615.298" cy="366.564" r="16.847" style="fill:rgb(122,64,62);"/>
            </g>
            <g transform="matrix(0.316371,0,0,0.316371,657.824,683.24)">
                <circle cx="615.298" cy="366.564" r="16.847" style="fill:rgb(122,64,62);"/>
            </g>
            <g transform="matrix(0.316371,0,0,0.316371,698.141,634.274)">
                <circle cx="615.298" cy="366.564" r="16.847" style="fill:rgb(122,64,62);"/>
            </g>
            <g transform="matrix(0.316371,0,0,0.316371,636.091,657.906)">
                <circle cx="615.298" cy="366.564" r="16.847" style="fill:rgb(122,64,62);"/>
            </g>
            <g transform="matrix(0.316371,0,0,0.316371,638.671,608.483)">
                <circle cx="615.298" cy="366.564" r="16.847" style="fill:rgb(216,205,157);"/>
            </g>
            <g transform="matrix(0.316371,0,0,0.316371,597.58,611.669)">
                <circle cx="615.298" cy="366.564" r="16.847" style="fill:rgb(216,205,157);"/>
            </g>
            <g transform="matrix(0.316371,0,0,0.316371,570.696,630.046)">
                <circle cx="615.298" cy="366.564" r="16.847" style="fill:rgb(216,205,157);"/>
            </g>
        </g>
    </g>
</svg>
